<svg xmlns="http://www.w3.org/2000/svg" viewBox="0 0 24 24" fill="currentColor" role="img" aria-label="AI Hub">
  <path d="M12 2a1 1 0 0 1 .92.61l1.86 4.36 4.72.4a1 1 0 0 1 .57 1.75l-3.58 3.1 1.07 4.61a1 1 0 0 1-1.49 1.08L12 15.9l-4.07 2.51a1 1 0 0 1-1.49-1.08l1.07-4.61-3.58-3.1a1 1 0 0 1 .57-1.75l4.72-.4 1.86-4.36A1 1 0 0 1 12 2zm0 3.56-1.2 2.82a1 1 0 0 1-.84.6l-3.05.26 2.31 2a1 1 0 0 1 .32.99l-.69 2.98 2.63-1.62a1 1 0 0 1 1.04 0l2.63 1.62-.69-2.98a1 1 0 0 1 .32-.99l2.31-2-3.05-.26a1 1 0 0 1-.84-.6z"/>
</svg>
